<?xml version="1.0" encoding="utf-8"?>
<!-- Generator: Adobe Illustrator 23.0.0, SVG Export Plug-In . SVG Version: 6.00 Build 0)  -->
<svg version="1.1" id="Calque_1" xmlns="http://www.w3.org/2000/svg" xmlns:xlink="http://www.w3.org/1999/xlink" x="0px" y="0px"
	 viewBox="0 0 887.2 916" style="enable-background:new 0 0 887.2 916;" xml:space="preserve">
<style type="text/css">
	.st0{fill:#0071BC;}
</style>
<g>
	<g id="Calque_3">
		<g>
			<g>
				<path class="st0" d="M450,183c151.9,0,275,123.1,275,275S601.9,733,450,733S175,609.9,175,458S298.1,183,450,183 M450,123
					c-45.2,0-89.1,8.9-130.4,26.4c-39.9,16.9-75.7,41-106.5,71.8s-54.9,66.6-71.8,106.5C123.9,368.9,115,412.8,115,458
					s8.9,89.1,26.4,130.4c16.9,39.9,41,75.7,71.8,106.5s66.6,54.9,106.5,71.8C360.9,784.1,404.8,793,450,793s89.1-8.9,130.4-26.3
					c39.9-16.9,75.7-41,106.5-71.8s54.9-66.6,71.8-106.5C776.1,547.1,785,503.2,785,458s-8.9-89.1-26.3-130.4
					c-16.9-39.9-41-75.7-71.8-106.5s-66.6-54.9-106.5-71.8C539.1,131.9,495.2,123,450,123L450,123z"/>
			</g>
			<g id="Logo_18_">
				<g>
					<path class="st0" d="M531,385c0,44.7-36.3,81-81,81s-81-36.3-81-81h-60v220l60,0.2c0.4-44.4,36.5-80.2,81-80.2
						c44.7,0,80.9,36.2,81,80.8l60,0.2V385H531z"/>
				</g>
				<g>
					<path class="st0" d="M450,243c-77.9,0-141,63.1-141,141s63.1,141,141,141s141-63.1,141-141S527.9,243,450,243z M450,465
						c-44.7,0-81-36.3-81-81s36.3-81,81-81s81,36.3,81,81S494.7,465,450,465z"/>
				</g>
				<g>
					<circle class="st0" cx="339" cy="605" r="30"/>
				</g>
				<g>
					<circle class="st0" cx="561" cy="606" r="30"/>
				</g>
				<g>
					<circle class="st0" cx="339" cy="384" r="30"/>
				</g>
				<g>
					<circle class="st0" cx="561" cy="385" r="30"/>
				</g>
			</g>
		</g>
	</g>
</g>
</svg>
